<mxfile host="app.diagrams.net" agent="Mozilla/5.0 (Windows NT 10.0; Win64; x64) AppleWebKit/537.36 (KHTML, like Gecko) Chrome/130.0.0.0 Safari/537.36 Edg/130.0.0.0" version="24.8.4">
  <diagram name="Page-1" id="lydEy3UlVZ0hXnfnAnw2">
    <mxGraphModel dx="927" dy="537" grid="0" gridSize="10" guides="1" tooltips="1" connect="1" arrows="1" fold="1" page="1" pageScale="1" pageWidth="850" pageHeight="1100" background="#FFFFFF" math="0" shadow="0">
      <root>
        <mxCell id="0" />
        <mxCell id="1" parent="0" />
        <mxCell id="A2eg4AGigvw0tcSJp81s-12" style="edgeStyle=none;curved=1;rounded=0;orthogonalLoop=1;jettySize=auto;html=1;exitX=0.5;exitY=0.5;exitDx=0;exitDy=0;exitPerimeter=0;entryX=1;entryY=0.5;entryDx=0;entryDy=0;fontSize=12;startSize=8;endSize=8;" edge="1" parent="1" source="A2eg4AGigvw0tcSJp81s-3" target="A2eg4AGigvw0tcSJp81s-10">
          <mxGeometry relative="1" as="geometry" />
        </mxCell>
        <mxCell id="A2eg4AGigvw0tcSJp81s-3" value="Actor" style="shape=umlActor;verticalLabelPosition=bottom;verticalAlign=top;html=1;" vertex="1" parent="1">
          <mxGeometry x="752" y="135" width="30" height="60" as="geometry" />
        </mxCell>
        <mxCell id="A2eg4AGigvw0tcSJp81s-5" value="Actor" style="shape=umlActor;verticalLabelPosition=bottom;verticalAlign=top;html=1;" vertex="1" parent="1">
          <mxGeometry x="797" y="292" width="30" height="60" as="geometry" />
        </mxCell>
        <mxCell id="A2eg4AGigvw0tcSJp81s-17" value="" style="edgeStyle=none;curved=1;rounded=0;orthogonalLoop=1;jettySize=auto;html=1;fontSize=12;startSize=8;endSize=8;entryX=0;entryY=0;entryDx=0;entryDy=0;" edge="1" parent="1" source="A2eg4AGigvw0tcSJp81s-7" target="A2eg4AGigvw0tcSJp81s-15">
          <mxGeometry relative="1" as="geometry" />
        </mxCell>
        <mxCell id="A2eg4AGigvw0tcSJp81s-22" style="edgeStyle=none;curved=1;rounded=0;orthogonalLoop=1;jettySize=auto;html=1;exitX=0;exitY=1;exitDx=0;exitDy=0;fontSize=12;startSize=8;endSize=8;" edge="1" parent="1" source="A2eg4AGigvw0tcSJp81s-7" target="A2eg4AGigvw0tcSJp81s-13">
          <mxGeometry relative="1" as="geometry" />
        </mxCell>
        <mxCell id="A2eg4AGigvw0tcSJp81s-23" style="edgeStyle=none;curved=1;rounded=0;orthogonalLoop=1;jettySize=auto;html=1;exitX=0;exitY=0.5;exitDx=0;exitDy=0;entryX=1;entryY=0;entryDx=0;entryDy=0;fontSize=12;startSize=8;endSize=8;" edge="1" parent="1" source="A2eg4AGigvw0tcSJp81s-7" target="A2eg4AGigvw0tcSJp81s-16">
          <mxGeometry relative="1" as="geometry" />
        </mxCell>
        <mxCell id="A2eg4AGigvw0tcSJp81s-24" value="" style="edgeStyle=none;curved=1;rounded=0;orthogonalLoop=1;jettySize=auto;html=1;fontSize=12;startSize=8;endSize=8;" edge="1" parent="1" source="A2eg4AGigvw0tcSJp81s-7" target="A2eg4AGigvw0tcSJp81s-14">
          <mxGeometry relative="1" as="geometry" />
        </mxCell>
        <mxCell id="A2eg4AGigvw0tcSJp81s-7" value="User Management" style="ellipse;whiteSpace=wrap;html=1;" vertex="1" parent="1">
          <mxGeometry x="126" y="198" width="140" height="70" as="geometry" />
        </mxCell>
        <mxCell id="A2eg4AGigvw0tcSJp81s-8" value="" style="rounded=1;whiteSpace=wrap;html=1;" vertex="1" parent="1">
          <mxGeometry x="148" y="559" width="120" height="60" as="geometry" />
        </mxCell>
        <mxCell id="A2eg4AGigvw0tcSJp81s-9" value="Casual Visitors" style="rounded=0;whiteSpace=wrap;html=1;" vertex="1" parent="1">
          <mxGeometry x="310" y="99" width="120" height="60" as="geometry" />
        </mxCell>
        <mxCell id="A2eg4AGigvw0tcSJp81s-10" value="Registered user" style="rounded=0;whiteSpace=wrap;html=1;" vertex="1" parent="1">
          <mxGeometry x="310" y="26" width="120" height="60" as="geometry" />
        </mxCell>
        <mxCell id="A2eg4AGigvw0tcSJp81s-11" value="Admin" style="rounded=0;whiteSpace=wrap;html=1;" vertex="1" parent="1">
          <mxGeometry x="454" y="118" width="120" height="60" as="geometry" />
        </mxCell>
        <mxCell id="A2eg4AGigvw0tcSJp81s-13" value="Register account" style="ellipse;whiteSpace=wrap;html=1;fillColor=#ffe6cc;strokeColor=#d79b00;" vertex="1" parent="1">
          <mxGeometry x="15" y="326" width="110" height="51" as="geometry" />
        </mxCell>
        <mxCell id="A2eg4AGigvw0tcSJp81s-14" value="Recover account" style="ellipse;whiteSpace=wrap;html=1;fillColor=#ffe6cc;strokeColor=#d79b00;" vertex="1" parent="1">
          <mxGeometry x="141" y="326" width="110" height="51" as="geometry" />
        </mxCell>
        <mxCell id="A2eg4AGigvw0tcSJp81s-15" value="Reset Password" style="ellipse;whiteSpace=wrap;html=1;fillColor=#ffe6cc;strokeColor=#d79b00;" vertex="1" parent="1">
          <mxGeometry x="263" y="292" width="100" height="44" as="geometry" />
        </mxCell>
        <mxCell id="A2eg4AGigvw0tcSJp81s-16" value="login" style="ellipse;whiteSpace=wrap;html=1;fillColor=#ffe6cc;strokeColor=#d79b00;" vertex="1" parent="1">
          <mxGeometry x="8" y="268" width="85" height="32" as="geometry" />
        </mxCell>
        <mxCell id="A2eg4AGigvw0tcSJp81s-26" value="Catalog Management" style="ellipse;whiteSpace=wrap;html=1;" vertex="1" parent="1">
          <mxGeometry x="434" y="309" width="140" height="70" as="geometry" />
        </mxCell>
        <mxCell id="A2eg4AGigvw0tcSJp81s-28" value="" style="edgeStyle=none;curved=1;rounded=0;orthogonalLoop=1;jettySize=auto;html=1;fontSize=12;startSize=8;endSize=8;entryX=0;entryY=0;entryDx=0;entryDy=0;exitX=1;exitY=1;exitDx=0;exitDy=0;" edge="1" target="A2eg4AGigvw0tcSJp81s-33" parent="1" source="A2eg4AGigvw0tcSJp81s-26">
          <mxGeometry relative="1" as="geometry">
            <mxPoint x="540" y="374" as="sourcePoint" />
          </mxGeometry>
        </mxCell>
        <mxCell id="A2eg4AGigvw0tcSJp81s-29" style="edgeStyle=none;curved=1;rounded=0;orthogonalLoop=1;jettySize=auto;html=1;exitX=0;exitY=1;exitDx=0;exitDy=0;fontSize=12;startSize=8;endSize=8;" edge="1" target="A2eg4AGigvw0tcSJp81s-31" parent="1">
          <mxGeometry relative="1" as="geometry">
            <mxPoint x="454" y="369" as="sourcePoint" />
          </mxGeometry>
        </mxCell>
        <mxCell id="A2eg4AGigvw0tcSJp81s-30" value="" style="edgeStyle=none;curved=1;rounded=0;orthogonalLoop=1;jettySize=auto;html=1;fontSize=12;startSize=8;endSize=8;" edge="1" target="A2eg4AGigvw0tcSJp81s-32" parent="1">
          <mxGeometry relative="1" as="geometry">
            <mxPoint x="503" y="379" as="sourcePoint" />
          </mxGeometry>
        </mxCell>
        <mxCell id="A2eg4AGigvw0tcSJp81s-31" value="Add mobile device" style="ellipse;whiteSpace=wrap;html=1;fillColor=#dae8fc;strokeColor=#6c8ebf;" vertex="1" parent="1">
          <mxGeometry x="320" y="403" width="110" height="51" as="geometry" />
        </mxCell>
        <mxCell id="A2eg4AGigvw0tcSJp81s-32" value="Edit mobile device" style="ellipse;whiteSpace=wrap;html=1;fillColor=#dae8fc;strokeColor=#6c8ebf;" vertex="1" parent="1">
          <mxGeometry x="448" y="437" width="110" height="51" as="geometry" />
        </mxCell>
        <mxCell id="A2eg4AGigvw0tcSJp81s-33" value="Delete Mobile device" style="ellipse;whiteSpace=wrap;html=1;fillColor=#dae8fc;strokeColor=#6c8ebf;" vertex="1" parent="1">
          <mxGeometry x="582" y="403" width="100" height="51" as="geometry" />
        </mxCell>
      </root>
    </mxGraphModel>
  </diagram>
</mxfile>
